<svg width="110" height="33" viewBox="0 0 110 33" fill="none" xmlns="http://www.w3.org/2000/svg">
<g clip-path="url(#clip0_444_2)">
<path d="M110 0H0V33H110V0Z" fill="url(#paint0_radial_444_2)"/>
<path opacity="0.2" d="M33 22.1344C33 26.1664 30.4992 29.6124 26.9667 31C28.0935 30.0252 29.2368 27.2563 28.8064 26.9742C27.9507 26.4121 25.3888 29.8281 26.6708 22.7576C25.9362 23.8569 23.9941 25.989 22.8228 26.6144C24.7463 22.7576 23.096 16.8994 22.1813 15.6871C24.4918 20.837 18.1946 22.0742 18.1946 26.9742C18.1946 28.5827 18.9065 30.0241 20.0322 31C16.5019 29.6114 14 26.1653 14 22.1344C14 17.9271 16.5443 16.5676 16.5443 12.855C17.1599 13.109 17.7052 13.9801 17.7052 15.8167C17.7052 16.6785 18.443 17.1193 18.9996 17.1193C19.9671 17.1193 20.5661 16.1092 20.1802 15.2723C17.282 8.98578 21.9061 4.40519 24.887 3C21.8078 12.7004 33 13.1609 33 22.1344Z" fill="#EC521E"/>
<path d="M29.7734 22.2654V16.4619L28.5525 20.2793H27.4112L26.2225 16.4769V22.2654H24V11.127H25.956L27.9894 16.5865L30.0227 11.127H31.9938V22.2654H29.7734Z" fill="white"/>
<path d="M44.6132 13.1302V22.2654H42.3906V13.1302H39.7296V11.127H47.272V13.1302H44.6132Z" fill="white"/>
<path d="M53.2088 21.5925C52.6457 22.1234 51.9729 22.3899 51.0508 22.3899C49.7998 22.3899 49.1421 21.8891 48.6262 21.2786C47.7342 20.2147 47.7965 18.2135 47.7965 16.7111C47.7965 15.2086 47.7342 13.1752 48.6262 12.1113C49.1421 11.5008 49.7998 11 51.0508 11C51.9729 11 52.6457 11.2665 53.2088 11.7974C53.787 12.3456 54.1481 13.2204 54.1954 14.2844H51.9751C51.96 13.9705 51.9278 13.6589 51.8031 13.4246C51.6784 13.158 51.4592 13.0033 51.0529 13.0033C50.6467 13.0033 50.4425 13.1903 50.3178 13.4418C50.0513 13.9576 50.0212 15.3505 50.0212 16.696C50.0212 18.0416 50.0535 19.4344 50.3178 19.9503C50.4425 20.1996 50.6467 20.3888 51.0529 20.3888C51.4592 20.3888 51.6935 20.2168 51.8203 19.9503C51.945 19.716 51.9772 19.4022 51.9922 19.0905H54.2148C54.1632 20.1545 53.7892 21.0465 53.2088 21.5925Z" fill="white"/>
<path d="M59.3218 22.2654V17.6032H57.4755V22.2654H55.2529V11.127H57.4755V15.6021H59.3218V11.127H61.5444V22.2654H59.3218Z" fill="white"/>
<path d="M40.5142 18.8432C40.5142 20.4811 39.4953 21.8804 38.0573 22.4457C38.5152 22.0502 38.9816 20.926 38.8075 20.8099C38.4593 20.5821 37.4168 21.9685 37.9391 19.0968C37.6404 19.5439 36.8494 20.4101 36.3722 20.6638C37.1546 19.0968 36.484 16.7174 36.1121 16.2252C37.0536 18.3166 34.4893 18.8196 34.4893 20.8099C34.4893 21.4634 34.7794 22.048 35.2373 22.4457C33.7993 21.8825 32.7805 20.4811 32.7805 18.8432C32.7805 17.1344 33.8165 16.582 33.8165 15.0731C34.068 15.1762 34.2894 15.5309 34.2894 16.2768C34.2894 16.6271 34.5903 16.8055 34.816 16.8055C35.2093 16.8055 35.4544 16.395 35.2975 16.0554C34.1174 13.5018 36.0003 11.6404 37.2126 11.0708C35.9573 15.0107 40.5142 15.1977 40.5142 18.8432Z" fill="url(#paint1_linear_444_2)"/>
<path d="M64.7878 22.4308V11.2988H66.1334V21.2271H69.0889V22.4308H64.7878Z" fill="url(#paint2_linear_444_2)"/>
<path d="M73.2631 22.4308V21.7107C73.1384 21.93 72.9514 22.132 72.7945 22.2589C72.5452 22.4459 72.2786 22.5555 71.8402 22.5555C71.2469 22.5555 70.8235 22.3685 70.4495 21.945C70.1356 21.5861 69.9336 20.9756 69.9336 20.1309C69.9336 19.3807 70.1829 18.723 70.6537 18.3017C71.0599 17.9428 71.5285 17.7536 72.3732 17.7536H73.2029V16.4725C73.2029 15.7224 72.874 15.3161 72.2485 15.3161C71.967 15.3161 71.78 15.4258 71.6231 15.5827C71.4038 15.817 71.3264 16.0835 71.3264 16.5198H70.0604C70.0604 15.8943 70.2001 15.2839 70.6859 14.8003C71.0449 14.4413 71.6231 14.207 72.2485 14.207C72.9041 14.207 73.4522 14.394 73.8284 14.7702C74.2196 15.1764 74.4689 15.7245 74.4689 16.5521V22.4308H73.2631ZM73.2008 18.68H72.4807C72.0895 18.68 71.8251 18.7424 71.5736 18.9766C71.3393 19.1959 71.1975 19.6494 71.1975 20.0858C71.1975 20.9305 71.5263 21.4464 72.1819 21.4464C72.7924 21.4464 73.1986 20.9305 73.1986 20.1803V18.68H73.2008Z" fill="url(#paint3_linear_444_2)"/>
<path d="M80.1263 21.9622C79.7673 22.3835 79.3288 22.5555 78.7807 22.5555C78.4519 22.5555 78.1552 22.4609 77.9059 22.3061C77.749 22.2116 77.4846 21.9622 77.4051 21.8053V22.4308H76.1863V11.2988H77.4524V14.8949C77.562 14.7229 77.749 14.5359 77.9059 14.4413C78.1552 14.2844 78.454 14.207 78.7807 14.207C79.374 14.207 79.7974 14.4112 80.1263 14.8003C80.6421 15.4107 80.7045 16.5048 80.7045 18.3813C80.7045 20.2577 80.6421 21.3539 80.1263 21.9622ZM79.1268 15.6772C78.9699 15.458 78.7055 15.3333 78.4239 15.3333C78.1746 15.3333 77.9403 15.4107 77.7683 15.5827C77.5641 15.7869 77.4545 16.0835 77.4545 16.5198V20.2255C77.4545 20.664 77.5641 20.9756 77.7683 21.1798C77.9403 21.3518 78.1746 21.4141 78.4239 21.4141C78.7055 21.4141 78.972 21.2894 79.1268 21.0702C79.4234 20.664 79.4406 19.8343 79.4406 18.3813C79.4385 16.9282 79.4234 16.0835 79.1268 15.6772Z" fill="url(#paint4_linear_444_2)"/>
<path d="M85.7879 21.9149C85.3494 22.3685 84.7863 22.5555 84.1307 22.5555C83.4751 22.5555 82.8947 22.3362 82.5057 21.93C82.0371 21.4464 81.8179 20.8832 81.8179 20.1481H83.0688C83.0688 20.5694 83.1785 20.8832 83.4128 21.1325C83.5998 21.3195 83.8813 21.4141 84.1328 21.4141C84.4617 21.4141 84.696 21.3195 84.898 21.1175C85.085 20.9305 85.2097 20.6339 85.2097 20.305C85.2097 20.0234 85.1474 19.7891 85.0055 19.5699C84.8486 19.3356 84.6143 19.1637 84.2854 18.9917L83.2387 18.4608C82.7077 18.1943 82.3316 17.8675 82.1295 17.5236C81.9576 17.227 81.8802 16.8831 81.8802 16.4596C81.8802 15.7568 82.1467 15.2237 82.553 14.8175C82.9592 14.4112 83.5224 14.207 84.1479 14.207C84.7884 14.207 85.3365 14.394 85.7277 14.7852C86.149 15.1915 86.3833 15.7697 86.3833 16.5671H85.1323C85.1323 16.0985 85.0377 15.817 84.8357 15.5977C84.6487 15.3935 84.3972 15.3161 84.1479 15.3161C83.8512 15.3161 83.617 15.4107 83.445 15.5827C83.2408 15.7869 83.1484 16.0684 83.1484 16.3651C83.1484 16.5994 83.1957 16.7864 83.2881 16.9583C83.3977 17.1453 83.632 17.3345 83.9609 17.4892L84.9926 18.0051C85.5407 18.2716 85.8997 18.5532 86.134 18.9272C86.3532 19.2561 86.4779 19.7096 86.4779 20.2255C86.4757 20.9455 86.1941 21.5087 85.7879 21.9149Z" fill="url(#paint5_linear_444_2)"/>
</g>
<defs>
<radialGradient id="paint0_radial_444_2" cx="0" cy="0" r="1" gradientUnits="userSpaceOnUse" gradientTransform="translate(55.0003 16.4999) scale(44.6045 23.8267)">
<stop stop-color="#34006A"/>
<stop offset="0.0445" stop-color="#2F0060"/>
<stop offset="0.229" stop-color="#1E003E"/>
<stop offset="0.4166" stop-color="#110023"/>
<stop offset="0.6061" stop-color="#08000F"/>
<stop offset="0.7989" stop-color="#020004"/>
<stop offset="1"/>
</radialGradient>
<linearGradient id="paint1_linear_444_2" x1="32.7787" y1="16.7577" x2="40.5141" y2="16.7577" gradientUnits="userSpaceOnUse">
<stop stop-color="#FF1577"/>
<stop offset="1" stop-color="#FF9015"/>
</linearGradient>
<linearGradient id="paint2_linear_444_2" x1="64.7886" y1="16.8659" x2="69.088" y2="16.8659" gradientUnits="userSpaceOnUse">
<stop stop-color="#FF1577"/>
<stop offset="0.9994" stop-color="#FF3F5A"/>
</linearGradient>
<linearGradient id="paint3_linear_444_2" x1="69.9327" y1="18.3824" x2="74.4667" y2="18.3824" gradientUnits="userSpaceOnUse">
<stop stop-color="#FF1577"/>
<stop offset="0.9994" stop-color="#FF3F5A"/>
</linearGradient>
<linearGradient id="paint4_linear_444_2" x1="76.1871" y1="16.9284" x2="80.7054" y2="16.9284" gradientUnits="userSpaceOnUse">
<stop stop-color="#FF1577"/>
<stop offset="0.9994" stop-color="#FF3F5A"/>
</linearGradient>
<linearGradient id="paint5_linear_444_2" x1="81.8159" y1="18.3824" x2="86.4749" y2="18.3824" gradientUnits="userSpaceOnUse">
<stop stop-color="#FF1577"/>
<stop offset="0.9994" stop-color="#FF3F5A"/>
</linearGradient>
<clipPath id="clip0_444_2">
<rect width="110" height="33" fill="white"/>
</clipPath>
</defs>
</svg>
